<?xml version="1.0" encoding="utf-8"?>
<svg version="1.1" xmlns:xlink="http://www.w3.org/1999/xlink" width="27px" height="27px" xmlns="http://www.w3.org/2000/svg">
  <g transform="matrix(1 0 0 1 -311 -286 )">
    <path d="M 21.9183238636364 12.4453125  C 22.0333806818182 12.5603693181818  22.0909090909091 12.7073863636364  22.0909090909091 12.8863636363636  L 22.0909090909091 14.1136363636364  C 22.0909090909091 14.2926136363636  22.0333806818182 14.4396306818182  21.9183238636364 14.5546875  C 21.8032670454545 14.6697443181818  21.65625 14.7272727272727  21.4772727272727 14.7272727272727  L 5.52272727272728 14.7272727272727  C 5.34375 14.7272727272727  5.19673295454545 14.6697443181818  5.08167613636364 14.5546875  C 4.96661931818181 14.4396306818182  4.90909090909091 14.2926136363636  4.90909090909091 14.1136363636364  L 4.90909090909091 12.8863636363636  C 4.90909090909091 12.7073863636364  4.96661931818181 12.5603693181818  5.08167613636364 12.4453125  C 5.19673295454545 12.3302556818182  5.34375 12.2727272727273  5.52272727272728 12.2727272727273  L 21.4772727272727 12.2727272727273  C 21.65625 12.2727272727273  21.8032670454545 12.3302556818182  21.9183238636364 12.4453125  Z M 23.6441761363636 23.6441761363636  C 24.2450284090909 23.0433238636364  24.5454545454545 22.3210227272727  24.5454545454545 21.4772727272727  L 24.5454545454545 5.52272727272728  C 24.5454545454545 4.67897727272728  24.2450284090909 3.95667613636363  23.6441761363636 3.35582386363637  C 23.0433238636364 2.75497159090909  22.3210227272727 2.45454545454547  21.4772727272727 2.45454545454547  L 5.52272727272728 2.45454545454547  C 4.67897727272728 2.45454545454547  3.95667613636364 2.75497159090909  3.35582386363636 3.35582386363637  C 2.75497159090909 3.95667613636363  2.45454545454545 4.67897727272728  2.45454545454545 5.52272727272728  L 2.45454545454545 21.4772727272727  C 2.45454545454545 22.3210227272727  2.75497159090909 23.0433238636364  3.35582386363636 23.6441761363636  C 3.95667613636364 24.2450284090909  4.67897727272728 24.5454545454545  5.52272727272728 24.5454545454545  L 21.4772727272727 24.5454545454545  C 22.3210227272727 24.5454545454545  23.0433238636364 24.2450284090909  23.6441761363636 23.6441761363636  Z M 25.3796164772727 1.62038352272728  C 26.4598721590909 2.70063920454544  27 4.00142045454544  27 5.52272727272728  L 27 21.4772727272727  C 27 22.9985795454546  26.4598721590909 24.2993607954546  25.3796164772727 25.3796164772727  C 24.2993607954546 26.4598721590909  22.9985795454546 27  21.4772727272727 27  L 5.52272727272728 27  C 4.00142045454545 27  2.70063920454545 26.4598721590909  1.62038352272727 25.3796164772727  C 0.540127840909093 24.2993607954546  0 22.9985795454546  0 21.4772727272727  L 0 5.52272727272728  C 0 4.00142045454544  0.540127840909093 2.70063920454544  1.62038352272727 1.62038352272728  C 2.70063920454545 0.540127840909093  4.00142045454545 0  5.52272727272728 0  L 21.4772727272727 0  C 22.9985795454546 0  24.2993607954546 0.540127840909093  25.3796164772727 1.62038352272728  Z " fill-rule="nonzero" fill="#000000" stroke="none" transform="matrix(1 0 0 1 311 286 )" />
  </g>
</svg>